# xmcd
#
# Track frame offsets:
#	150
#	19317
#	38925
#	52677
#	64632
#	81162
#	99960
#	117047
#	137017
#	151710
#	168707
#	178325
#
# Disc length: 2590 seconds
#
# Revision: 1
# Processed by: cddbd v1.5.2PL0 Copyright (c) Steve Scherf et al.
# Submitted via: audiograbber 1.83.01
#
DISCID=920a1c0c
DTITLE=The Johnnys - Grown Up Wrong
DYEAR=1988
DGENRE=
TTITLE0=Middle Sized John
TTITLE1=Anything Could Happen
TTITLE2=Motorbikin'
TTITLE3=Grown Up Wrong
TTITLE4=Going Down (With Rock and Roll)
TTITLE5=The Logan Girls
TTITLE6=No Excusin' My Boozin'
TTITLE7=Ten Outlaws
TTITLE8=Bounty Hunter
TTITLE9=Cajun Woman
TTITLE10=Shameless Girl
TTITLE11=The Taller Man
EXTD=
EXTT0=
EXTT1=
EXTT2=
EXTT3=
EXTT4=
EXTT5=
EXTT6=
EXTT7=
EXTT8=
EXTT9=
EXTT10=
EXTT11=
PLAYORDER=
